<svg version="1.2" xmlns="http://www.w3.org/2000/svg" viewBox="0 0 540 163" width="540" height="163">
	<title>download-on-the-app-store-apple-logo-svgrepo-com-svg</title>
	<defs>
		<linearGradient id="g1" x2="1" gradientUnits="userSpaceOnUse" gradientTransform="matrix(0,-577.037,1038.275,0,396.049,161.425)">
			<stop offset="0" stop-color="#1a1a1a" stop-opacity=".1"/>
			<stop offset=".123" stop-color="#212121" stop-opacity=".15"/>
			<stop offset=".308" stop-color="#353535" stop-opacity=".23"/>
			<stop offset=".532" stop-color="#575757" stop-opacity=".32"/>
			<stop offset=".783" stop-color="#858585" stop-opacity=".42"/>
			<stop offset="1" stop-color="#b3b3b3" stop-opacity=".51"/>
		</linearGradient>
	</defs>
	<style>
		.s0 { fill: #ffffff } 
		.s1 { fill: #a6a6a6 } 
		.s2 { fill: #000000 } 
		.s3 { fill: url(#g1) } 
	</style>
	<g id="Layer">
		<path id="Layer" class="s0" d="m536.4 142.1c0 2-0.4 4-1.2 5.9-0.7 1.8-1.9 3.5-3.3 5-1.4 1.4-3.1 2.5-5 3.3-1.8 0.7-3.8 1.1-5.8 1.1h-502.2c-2 0-4-0.4-5.8-1.1-1.9-0.8-3.6-1.9-5-3.3-1.5-1.5-2.6-3.2-3.4-5-0.7-1.9-1.1-3.9-1.1-5.9v-122.2c0-2 0.4-4 1.1-5.9 0.8-1.8 1.9-3.5 3.4-4.9 1.4-1.5 3.1-2.6 5-3.4 1.8-0.7 3.8-1.1 5.8-1.1h502.2c2 0 4 0.4 5.8 1.1 1.9 0.8 3.6 1.9 5 3.4 1.4 1.4 2.6 3.1 3.3 4.9 0.8 1.9 1.2 3.9 1.2 5.9z"/>
		<path id="Layer" class="s1" d="m521.1 161h-502.2c-2.5 0-4.9-0.5-7.2-1.4-2.3-1-4.4-2.4-6.1-4.1-1.8-1.8-3.2-3.9-4.1-6.2-1-2.3-1.5-4.7-1.5-7.2v-122.2c0-2.5 0.5-4.9 1.4-7.2 1-2.3 2.4-4.4 4.2-6.2 1.7-1.7 3.8-3.1 6.1-4.1 2.3-0.9 4.7-1.4 7.2-1.4h502.2c2.5 0 4.9 0.5 7.2 1.4 2.3 1 4.4 2.4 6.1 4.1 1.8 1.8 3.2 3.9 4.1 6.2 1 2.3 1.5 4.7 1.5 7.2v122.2c0 10.4-8.5 18.9-18.9 18.9z"/>
		<path id="Layer" class="s2" d="m536.4 142.1c0 2-0.4 4-1.2 5.9-0.7 1.8-1.9 3.5-3.3 5-1.4 1.4-3.1 2.5-5 3.3-1.8 0.7-3.8 1.1-5.8 1.1h-502.2c-2 0-4-0.4-5.8-1.1-1.9-0.8-3.6-1.9-5-3.3-1.5-1.5-2.6-3.2-3.4-5-0.7-1.9-1.1-3.9-1.1-5.9v-122.2c0-2 0.4-4 1.1-5.9 0.8-1.8 1.9-3.5 3.4-4.9 1.4-1.5 3.1-2.6 5-3.4 1.8-0.7 3.8-1.1 5.8-1.1h502.2c2 0 4 0.4 5.8 1.1 1.9 0.8 3.6 1.9 5 3.4 1.4 1.4 2.6 3.1 3.3 4.9 0.8 1.9 1.2 3.9 1.2 5.9z"/>
		<path id="Layer" class="s0" d="m120.6 80.2c-0.1-12.9 10.5-19.2 11-19.5-6-8.8-15.4-10-18.7-10.1-7.9-0.8-15.5 4.7-19.5 4.7-4.1 0-10.3-4.6-16.9-4.5-8.6 0.1-16.6 5.1-21 12.8-9.1 15.7-2.3 38.7 6.4 51.4 4.3 6.3 9.4 13.2 16.1 12.9 6.5-0.2 8.9-4.1 16.7-4.1 7.8 0 10.1 4.1 16.9 4 7-0.1 11.4-6.3 15.5-12.5 5.1-7.1 7.1-14.2 7.2-14.5-0.2-0.1-13.6-5.2-13.7-20.6zm-12.8-38c3.5-4.3 5.9-10.3 5.2-16.3-5.1 0.2-11.4 3.5-15 7.8-3.3 3.7-6.2 9.9-5.4 15.7 5.7 0.4 11.5-2.9 15.2-7.2z"/>
		<path id="Layer" class="s3" d="m521.1 1h-269l105.4 160h163.6c2.5 0 4.9-0.5 7.2-1.4 2.3-1 4.4-2.4 6.1-4.1 1.8-1.8 3.2-3.9 4.1-6.2 1-2.3 1.5-4.7 1.5-7.2v-122.2c0-2.5-0.5-4.9-1.5-7.2-0.9-2.3-2.3-4.4-4.1-6.2-1.7-1.7-3.8-3.1-6.1-4.1-2.3-0.9-4.7-1.4-7.2-1.4z"/>
		<g id="Layer">
			<path id="Layer" fill-rule="evenodd" class="s0" d="m214.8 127.1h-9.1l-5-15.7h-17.3l-4.7 15.7h-8.9l17.2-53.3h10.6zm-15.6-22.2l-4.5-13.9q-0.7-2.1-2.7-10h-0.2q-0.8 3.4-2.5 10l-4.4 13.9zm59.6 2.5q0 9.8-5.4 15.5-4.7 5.1-11.8 5.1-7.6 0-11-5.5v20.2h-8.5v-41.4q0-6.1-0.3-12.6h7.5l0.5 6.1h0.1q4.3-6.9 13-6.9 6.8 0 11.3 5.4 4.6 5.4 4.6 14.1zm-8.7 0.3q0-5.6-2.6-9.2-2.7-3.8-7.4-3.8-3.1 0-5.7 2.1-2.6 2.1-3.4 5.5-0.1 0.3-0.1 0.6-0.1 0.4-0.1 0.7-0.1 0.3-0.1 0.6-0.1 0.4-0.1 0.7v6.4q0 4.2 2.6 7.1 2.6 2.9 6.7 2.9 4.8 0 7.5-3.8 2.7-3.7 2.7-9.8zm52.8-0.3q0 9.8-5.3 15.5-4.8 5.1-11.8 5.1-7.7 0-11-5.5v20.2h-8.5v-41.4q0-6.1-0.3-12.6h7.5l0.4 6.1h0.2q4.3-6.9 13-6.9 6.7 0 11.3 5.4 4.5 5.4 4.5 14.1zm-8.7 0.3q0-5.6-2.5-9.2-2.8-3.8-7.4-3.8-3.2 0-5.8 2.1-2.5 2.1-3.3 5.5-0.4 1.6-0.4 2.6v6.4q0 4.2 2.6 7.1 2.5 2.9 6.6 2.9 4.9 0 7.5-3.8 2.7-3.7 2.7-9.8zm58.1 4.5q0 6.8-4.7 11-5.2 4.7-14.5 4.7-8.6 0-13.8-3.3l2-7.1q5.6 3.3 12.3 3.3 4.8 0 7.5-2.2 2.7-2.2 2.7-5.8 0-3.2-2.2-5.4-2.2-2.3-7.4-4.1-14-5.3-14-15.3 0-6.5 5-10.7 4.9-4.2 13-4.2 7.3 0 12.1 2.5l-2.1 7q-4.5-2.5-10.2-2.5-4.6 0-7.1 2.2-2.1 2-2.1 4.8 0 3.2 2.4 5.3 2.1 1.8 7.8 4.1 6.8 2.7 10.1 6.4 3.2 3.7 3.2 9.3zm28.3-17.1h-9.4v18.7q0 7.1 5 7.1 2.3 0 3.8-0.4l0.2 6.4q-2.5 1-6.6 1-5.1 0-7.9-3.1-2.9-3.1-2.9-10.4v-19.3h-5.6v-6.4h5.6v-7l8.4-2.6v9.6h9.4zm42.4 12.5q0 8.8-5.1 14.5-5.3 5.9-14.1 5.9-8.4 0-13.4-5.6-5.1-5.7-5.1-14.2 0-8.9 5.2-14.6 5.2-5.7 14-5.7 8.4 0 13.6 5.6 4.9 5.5 4.9 14.1zm-8.9 0.2q0-5.3-2.3-9.1-2.7-4.6-7.6-4.6-5.2 0-7.9 4.6-2.3 3.8-2.3 9.2 0 5.3 2.3 9.1 2.8 4.6 7.8 4.6 4.9 0 7.7-4.7 2.3-3.9 2.3-9.1zm36.6-11.6q-0.3-0.1-0.7-0.1-0.3-0.1-0.6-0.1-0.4 0-0.7 0-0.3 0-0.7 0-4.5 0-6.9 3.4-2.2 3-2.2 7.5v20.2h-8.5v-26.3q0-1.5 0-3 0-1.6-0.1-3.1 0-1.5 0-3-0.1-1.5-0.2-3h7.5l0.3 7.3h0.2q1.4-3.8 4.3-6 0.7-0.5 1.4-0.9 0.7-0.4 1.5-0.7 0.8-0.2 1.6-0.4 0.8-0.1 1.7-0.1 1.1 0 2.1 0.2zm38.2 9.8q0 0.5-0.1 1 0 0.5 0 1 0 0.5-0.1 0.9-0.1 0.5-0.2 1h-25.6q0.2 5.7 3.8 8.7 3.2 2.7 8.3 2.7 5.7 0 10.4-1.8l1.3 5.9q-5.4 2.4-12.8 2.4-9 0-14.1-5.3-5.1-5.2-5.1-14.1 0-8.7 4.8-14.4 4.9-6.2 13.4-6.2 8.3 0 12.6 6.2 3.4 4.8 3.4 12zm-8.2-2.2q0.1-3.8-1.6-6.5-2.3-3.6-6.8-3.6-4.2 0-6.8 3.5-2.2 2.8-2.6 6.6z"/>
		</g>
		<g id="Layer">
			<path id="Layer" fill-rule="evenodd" class="s0" d="m180.9 55q-3.5 0-6.1-0.3v-25.8q0.9-0.1 1.8-0.2 0.9-0.1 1.8-0.2 0.9-0.1 1.8-0.1 0.9 0 1.8 0c9.8 0 14.3 4.8 14.3 12.6 0 9.1-5.3 14-15.4 14zm1.5-23.3q-2 0-3.4 0.3v19.5c0.5 0.1 1.5 0.1 2.8 0.1 6.4 0 10.1-3.6 10.1-10.4 0-6.1-3.3-9.5-9.5-9.5zm28 23.5c-5.5 0-9.1-4.1-9.1-9.7 0-5.9 3.6-10 9.4-10 5.4 0 9.1 3.9 9.1 9.7 0 5.9-3.8 10-9.4 10zm0.1-16.6c-3 0-4.9 2.8-4.9 6.7 0 3.9 1.9 6.8 4.9 6.8 2.9 0 4.9-3.1 4.9-6.8 0-3.9-1.9-6.7-4.9-6.7zm40.7-2.7l-5.9 18.8h-3.8l-2.5-8.1q-0.2-0.8-0.4-1.6-0.2-0.7-0.4-1.5-0.2-0.7-0.4-1.5-0.1-0.8-0.3-1.5h-0.1c-0.3 2-0.9 4.1-1.5 6.1l-2.6 8.1h-3.9l-5.5-18.8h4.3l2.1 8.9q0.8 3.3 1.3 6.1h0.1c0.3-1.6 0.8-3.6 1.5-6l2.7-9h3.4l2.6 8.8c0.6 2.1 1.1 4.2 1.5 6.2h0.1q0.4-2.9 1.3-6.2l2.3-8.8zm21.7 18.9h-4.2v-10.9q0-5-3.8-5c-2.5 0-4.2 2.1-4.2 4.6v11.3h-4.2v-13.5q0-2.5-0.1-5.4h3.7l0.2 2.9h0.1c1.1-2 3.4-3.3 6-3.3 3.9 0 6.5 3 6.5 8zm11.6 0h-4.2v-27.6h4.2zm15.3 0.5c-5.5 0-9.1-4.2-9.1-9.8 0-5.8 3.7-9.9 9.4-9.9 5.4 0 9.1 3.9 9.1 9.6 0 5.9-3.8 10.1-9.4 10.1zm0.1-16.7c-3 0-4.9 2.9-4.9 6.8 0 3.9 2 6.7 4.9 6.7 3 0 4.9-3 4.9-6.8 0-3.8-1.9-6.7-4.9-6.7zm25.8 16.2l-0.3-2.1h-0.1c-1.3 1.7-3.1 2.6-5.5 2.6-3.4 0-5.8-2.4-5.8-5.6 0-4.7 4-7.1 11-7.1v-0.3q0-3.7-3.9-3.7-2.8 0-4.9 1.4l-0.9-2.8q2.7-1.6 6.5-1.6 7.4 0 7.4 7.8v6.9c0 1.9 0.1 3.4 0.3 4.5zm-0.6-9.4c-4.6 0-7 1.2-7 3.8 0 2 1.2 3 2.9 3 2.1 0 4.1-1.6 4.1-3.9zm24.5 9.4l-0.2-3h-0.1q-1.8 3.5-6.1 3.5c-4.5 0-7.9-4-7.9-9.7 0-5.9 3.5-10 8.3-10q3.8 0 5.3 2.5h0.1v-10.8h4.2v22.5q0 2.7 0.1 5zm-0.6-11.1c0-2.6-1.8-4.9-4.4-4.9-3.1 0-5 2.8-5 6.7 0 3.8 1.9 6.4 4.9 6.4 2.6 0 4.5-2.3 4.5-5zm30.8 11.5c-5.5 0-9.1-4.1-9.1-9.7 0-5.8 3.7-10 9.4-10 5.5 0 9.1 3.9 9.1 9.7 0 5.9-3.7 10-9.4 10zm0.2-16.6c-3.1 0-5 2.8-5 6.8 0 3.9 2 6.7 4.9 6.7 3 0 5-3 5-6.8 0-3.8-2-6.7-4.9-6.7zm31.8 16.2h-4.2v-10.8q0-5.1-3.8-5.1c-2.5 0-4.2 2.2-4.2 4.7v11.2h-4.2v-13.5q0-2.5-0.2-5.4h3.7l0.2 2.9h0.1c1.1-2 3.4-3.3 6-3.3 4 0 6.6 3.1 6.6 8zm28.2-15.7h-4.6v9.1q0 3.5 2.4 3.5 1.1 0 1.9-0.2l0.1 3.2q-1.2 0.5-3.3 0.5c-3.3 0-5.2-1.8-5.2-6.6v-9.5h-2.8v-3.2h2.8v-3.4l4.1-1.3v4.7h4.6zm22.2 15.7h-4.2v-10.7q0-5.1-3.8-5.1c-2.2 0-4.2 1.5-4.2 4.5v11.3h-4.2v-27.5h4.2v11.3h0.1c1.3-2 3.2-3 5.7-3 4 0 6.4 3.1 6.4 8zm22.7-8.4h-12.5c0 3.6 2.4 5.6 5.9 5.6 1.9 0 3.6-0.3 5.1-0.9l0.6 2.9q-2.6 1.2-6.3 1.2c-5.9 0-9.4-3.8-9.4-9.6 0-5.7 3.6-10.1 8.9-10.1 4.9 0 7.9 3.6 7.9 9q0 0.2 0 0.5 0 0.2 0 0.4 0 0.3-0.1 0.5 0 0.2-0.1 0.5zm-3.8-3c0-2.9-1.5-5-4.2-5-2.4 0-4.3 2.1-4.5 5z"/>
		</g>
	</g>
</svg>