 <svg
                xmlns="http://www.w3.org/2000/svg"
                viewBox="0 0 100 125"
                className="w-9 h-11 ml-3 text-white"
              >
                <defs>
                  <g id="a">
                    <path
                      fill="#ffffff"
                      d="M 92.3 19.55 Q 90.85 18.05 88.8 18 86.7 17.95 85.25 19.4 L 33.2 69.8 15.1 49.6 Q 13.7 48.05 11.65 47.95 9.55 47.85 8.05 49.25 6.45 50.6 6.35 52.7 6.25 54.75 7.65 56.3 L 29.25 80.35 Q 30.15 81.35 31.5 81.8 32.8 82.2 34.15 81.85 35.45 81.55 36.45 80.6 L 92.2 26.6 Q 93.65 25.15 93.7 23.1 93.75 21 92.3 19.55 Z"
                    />
                  </g>
                </defs>
                <g transform="matrix( 1, 0, 0, 1, 0,0)">
                  <use href="#a" />
                </g>
              </svg>